# xmcd
# 
# Track frame offsets:
#     150
#     17297
#     37201
#     66146
#     95135
#     102751
#     138065
#     174890
#     200936
#     231006
#     263131
#     292121
#     301863
# 
# Disc length: 4627
# 
# Revision: 4
# Processed by: cddbd v1.5.2PL0 Copyright (c) Steve Scherf et al.
# Submitted via: fre:ac v1.0.27
# 
DISCID=b212110d
DTITLE=Metallica - Shanghai China Live 2013
DYEAR=2013
DGENRE=
TTITLE0=Hit The Lights
TTITLE1=For Whom The Bell Tolls
TTITLE2=The Shortest Straw
TTITLE3=Harvester Of Sorrow
TTITLE4=Kirk Solo
TTITLE5=Welcome Home (Sanitarium)
TTITLE6=Broken Beat And Scared
TTITLE7=Leper Messiah
TTITLE8=Wherever I May Roam
TTITLE9=The Unforgiven
TTITLE10=Sad But True
TTITLE11=Bass Solo
TTITLE12=And Justice For All
EXTD=
EXTT0=
EXTT1=
EXTT2=
EXTT3=
EXTT4=
EXTT5=
EXTT6=
EXTT7=
EXTT8=
EXTT9=
EXTT10=
EXTT11=
EXTT12=
PLAYORDER=
